<svg width="208" height="75" viewBox="0 0 208 75" fill="none" xmlns="http://www.w3.org/2000/svg">
<path d="M62.4822 53.9109C63.9926 54.7922 65.5518 55.5266 67.2084 56.0652C68.4752 56.4569 69.8395 56.7997 71.0576 56.7017C73.7861 56.7017 73.7374 59.1988 73.0553 60.2271C72.568 60.9615 72.0808 61.4511 68.7188 60.3739C64.3337 58.954 56.7815 56.5548 50.3013 46.5175C43.821 36.4801 46.2572 23.3581 47.4753 20.6162C48.6934 17.8743 51.1296 8.08175 69.6446 6.12324C88.1596 4.16473 96.9299 26.198 96.9299 26.198L99.9995 31.9756C99.9995 31.9756 94.7373 31.5839 92.3986 26.4428C90.0599 21.3017 87.7211 19.1963 87.7211 19.1963C87.7211 19.1963 82.5077 13.2228 75.1017 12.5863C67.6956 11.9498 61.5077 13.5656 55.3198 21.8403C49.1319 30.115 51.0808 40.2013 53.0298 43.4818C54.93 46.6644 56.0507 48.9656 61.4103 53.1764C61.7513 53.4212 62.0924 53.666 62.4822 53.9109Z" fill="url(#paint0_linear)"/>
<path d="M50.7005 15.233C50.5128 15.4889 50.047 15.2432 50.2023 14.9664C51.4133 12.8085 52.9622 10.585 54.8398 8.92633C60.0017 4.36614 65.8453 0 78.0196 0C90.1939 0 100.469 9.65402 102.855 14.5053C105.777 19.4051 109.478 26.779 104.706 30.6115C99.9334 34.444 93.9923 29.3987 93.3106 26.8275C92.8353 25.035 92.3126 23.6904 92.0396 23.0405C91.9172 22.749 91.7908 22.4651 91.6598 22.1773C90.9122 20.5351 88.0149 14.6222 84.0094 12.1282C81.0389 10.3332 79.1397 9.26592 75.9744 8.34418C73.4908 7.61649 70.6664 7.08285 66.8193 7.2769C56.5929 7.76203 51.6257 13.9717 50.7005 15.233Z" fill="url(#paint1_linear)"/>
<path d="M101.034 30.9095H100.74C97.2196 30.6645 94.4812 28.3612 93.5032 24.9799C91.9384 19.3933 88.4176 10.5234 76.046 7.04406C63.6743 3.5647 50.9604 8.90626 47.3418 21.2065C47.3907 21.0105 47.4396 20.8635 47.4885 20.6675C47.2929 21.2065 47.1462 21.7456 46.9995 22.2846C50.6181 10.0334 63.332 4.64282 75.7037 8.12218C88.0753 11.6015 91.645 20.5204 93.1609 26.058C94.09 29.4394 96.8773 31.7916 100.398 31.9876H100.691C103.821 32.1836 106.364 30.0274 107 27.1851C106.022 29.4884 103.723 31.1055 101.034 30.9095Z" fill="url(#paint2_linear)"/>
<defs>
<linearGradient id="paint0_linear" x1="54.5834" y1="42.707" x2="97.8105" y2="10.1694" gradientUnits="userSpaceOnUse">
<stop stop-color="#9B3DB4"/>
<stop offset="0.9993" stop-color="#00E6FF"/>
</linearGradient>
<linearGradient id="paint1_linear" x1="47.0031" y1="16.005" x2="106.888" y2="16.005" gradientUnits="userSpaceOnUse">
<stop stop-color="#FF9D00"/>
<stop offset="0.9993" stop-color="#FF55E1"/>
</linearGradient>
<linearGradient id="paint2_linear" x1="50.4819" y1="11.1189" x2="106.498" y2="28.8067" gradientUnits="userSpaceOnUse">
<stop stop-color="#8927B5"/>
<stop offset="1" stop-color="#8786FC" stop-opacity="0"/>
</linearGradient>
</defs>
</svg>
