<svg width="35" height="33" viewBox="0 0 35 33" fill="none" xmlns="http://www.w3.org/2000/svg">
<path d="M7.696 20.456C9.04 20.84 10.144 21.56 11.008 22.616C11.872 23.672 12.304 24.92 12.304 26.36C12.304 28.088 11.728 29.528 10.576 30.68C9.424 31.832 8.032 32.408 6.4 32.408C4.672 32.408 3.232 31.832 2.08 30.68C0.928 29.528 0.352 28.088 0.352 26.36C0.352 24.632 0.784 22.424 1.648 19.736L7.264 0.151994H12.304L7.696 20.456ZM29.728 20.456C31.072 20.84 32.176 21.56 33.04 22.616C33.904 23.672 34.336 24.92 34.336 26.36C34.336 28.088 33.76 29.528 32.608 30.68C31.456 31.832 30.064 32.408 28.432 32.408C26.704 32.408 25.264 31.832 24.112 30.68C22.96 29.528 22.384 28.088 22.384 26.36C22.384 24.632 22.816 22.424 23.68 19.736L29.296 0.151994H34.336L29.728 20.456Z" fill="#33B0E7"/>
</svg>
